# xmcd CD database file
#
# Track frame offsets:
#	150
#	25199
#	63107
#	82121
#	115971
#	145739
#	180219
#	194414
#
# Disc length: 2941 seconds
#
# Revision: 0
# Processed by: cddbd v1.5.2PL0 Copyright (c) Steve Scherf et al.
# Submitted via: CDex 1.51
#
DISCID=630b7b08
DTITLE=Chad Wackerman - Live in Italy 2007
DYEAR=2007
DGENRE=Jazz
TTITLE0=Across the Bridge
TTITLE1=Forty Reasons
TTITLE2=Questions
TTITLE3=Waltzing on Jupiter
TTITLE4=All Stevens
TTITLE5=The Grey Chair - Scream
TTITLE6=Sofa Nr.1
TTITLE7=Close to Home
EXTD=YEAR: 2007
EXTT0=
EXTT1=
EXTT2=
EXTT3=
EXTT4=
EXTT5=
EXTT6=
EXTT7=
PLAYORDER=
